<svg xmlns="http://www.w3.org/2000/svg" viewBox="0 0 106 106"><defs><style>.cls-1{fill:#12adb8;}.cls-2{fill:#ffc868;}.cls-3{fill:#ff8f59;}.cls-4{opacity:0.1;}.cls-5{fill:#171c1f;}</style></defs><title>shopping-bag</title><g id="Shopping-Bag"><g id="Fill"><polygon class="cls-1" points="87 28 17 28 7 104 97 104 87 28"/></g><g id="Yellow"><path class="cls-2" d="M52,2A18,18,0,0,0,34,20V43h8V20a10,10,0,0,1,20,0V43h8V20A18,18,0,0,0,52,2Z"/></g><g id="Orange"><polygon class="cls-3" points="95 92 9 92 7 104 97 104 95 92"/></g><g id="Shadows" class="cls-4"><path d="M8,100v2H96v-2ZM30,49H46a2,2,0,0,0,2-2V43H28v4A2,2,0,0,0,30,49Zm28,0H74a2,2,0,0,0,2-2V43H56v4A2,2,0,0,0,58,49Z"/></g><g id="Inner_Lines" data-name="Inner Lines"><rect class="cls-5" x="9" y="90" width="86" height="2"/></g><g id="Outline"><path class="cls-5" d="M99,103.74h0l-10-76h0A2,2,0,0,0,87,26H72V20a20,20,0,0,0-40,0v6H17a2,2,0,0,0-2,1.74h0l-10,76H5A2,2,0,0,0,5,104a2,2,0,0,0,2,2H97a2,2,0,0,0,2-2A2,2,0,0,0,99,103.74ZM36,20a16,16,0,0,1,32,0V40c0,.34,0,.67-.05,1h-4c0-.33.07-.66.07-1V20a12,12,0,0,0-24,0V40c0,.34,0,.67.07,1h-4c0-.33-.05-.66-.05-1Zm24,6H44V20a8,8,0,1,1,16,0ZM9.28,102l9.47-72H32V40c0,.34,0,.67,0,1H30a2,2,0,1,0,0,4H46a2,2,0,1,0,0-4H44.07A7.9,7.9,0,0,1,44,40V30H60V40a7.9,7.9,0,0,1-.07,1H58a2,2,0,1,0,0,4H74a2,2,0,1,0,0-4H72c0-.33,0-.66,0-1V30H85.25l9.47,72Z"/></g></g></svg>