<svg id="icons" xmlns="http://www.w3.org/2000/svg" viewBox="0 0 56 56"><title>shop</title><g id="shop"><rect x="7" y="23" width="42" height="30" fill="#5de0da"/><rect x="7" y="5" width="42" height="6" fill="#5de0da"/><polyline points="7 11 7 3 49 3 49 11" fill="none" stroke="#2f6aa8" stroke-linecap="round" stroke-linejoin="round" stroke-width="4"/><polygon points="53 21 3 21 7 9 49 9 53 21" fill="#f7f7f7"/><polygon points="53 21 3 21 7 9 49 9 53 21" fill="none" stroke="#2f6aa8" stroke-linecap="round" stroke-linejoin="round" stroke-width="4"/><polyline points="42 53 49 53 49 21" fill="none" stroke="#2f6aa8" stroke-linecap="round" stroke-linejoin="round" stroke-width="4"/><rect x="30" y="29" width="12" height="24" fill="#f7f7f7"/><rect x="30" y="29" width="12" height="24" fill="none" stroke="#2f6aa8" stroke-linecap="round" stroke-linejoin="round" stroke-width="4"/><polyline points="7 21 7 53 31 53" fill="none" stroke="#2f6aa8" stroke-linecap="round" stroke-linejoin="round" stroke-width="4"/><rect x="14" y="29" width="10" height="10" fill="#a6fffb"/><rect x="14" y="29" width="10" height="10" fill="none" stroke="#2f6aa8" stroke-linecap="round" stroke-linejoin="round" stroke-width="4"/><rect x="38" y="39" width="4" height="4" rx="1" ry="1" fill="#2f6aa8"/></g></svg>